<svg width="16" height="16" viewBox="0 0 16 16" fill="none" xmlns="http://www.w3.org/2000/svg">
<g id="alert">
<path id="risk" fill-rule="evenodd" clip-rule="evenodd" d="M8.52023 2.2977C8.31623 1.8897 7.64827 1.8897 7.44367 2.2977L2.02779 13.1295C1.93451 13.3154 1.94474 13.5369 2.05426 13.7144C2.16439 13.8919 2.35755 14.0002 2.56637 14.0002H13.3981C13.607 14.0002 13.8001 13.8919 13.9096 13.7144C14.0198 13.5369 14.03 13.3154 13.9361 13.1295L8.52023 2.2977ZM3.53981 12.7967L7.98205 3.91219L12.4243 12.7967H3.53981ZM7.38007 8.58439C7.38007 8.91717 7.64906 9.18616 7.98183 9.18616C8.31461 9.18616 8.5836 8.91717 8.5836 8.58439V7.38086C8.5836 7.04808 8.31461 6.7791 7.98183 6.7791C7.64906 6.7791 7.38007 7.04808 7.38007 7.38086V8.58439ZM7.32033 10.9916C7.32033 11.3569 7.617 11.6529 7.98227 11.6529C8.34754 11.6529 8.64422 11.3569 8.64422 10.9916C8.64422 10.6257 8.34754 10.3297 7.98227 10.3297C7.617 10.3297 7.32033 10.6257 7.32033 10.9916Z" fill="#E6173E"/>
</g>
</svg>
