<svg xmlns="http://www.w3.org/2000/svg" width="8" height="8" viewBox="0 0 8 8" fill="none" transform="matrix(1, 0, 0, 1, 0, 0)">
<g id="right-arrow">
<path id="arrow_left" fill-rule="evenodd" clip-rule="evenodd" d="M0.515555 5.22214L6.22968 5.22214L4.52222 7.05155C4.31948 7.26877 4.31948 7.61987 4.52222 7.83709C4.72496 8.0543 5.05266 8.0543 5.25539 7.83709L7.84795 5.05937C8.05068 4.84215 8.05068 4.49105 7.84795 4.27383L5.25539 1.49611C5.15428 1.38778 5.02155 1.33333 4.88881 1.33333C4.75607 1.33333 4.62333 1.38778 4.52222 1.49611C4.31948 1.71333 4.31948 2.06443 4.52222 2.28165L6.22968 4.11105L0.515555 4.11105C0.228819 4.11105 -3.18224e-07 4.35994 -2.91415e-07 4.6666C-2.64606e-07 4.97326 0.228819 5.22214 0.515555 5.22214Z" fill="#7fabb7"/>
</g>
</svg>